<svg width="236" height="52" viewBox="0 0 236 52" fill="none" xmlns="http://www.w3.org/2000/svg">
<path d="M32.0565 40.7567V50.8622H0.803087V40.7567L17.1325 23.3565H0L3.34619 13.251H30.5842V23.3565L14.3217 40.7567H32.0565Z" fill="#031821"/>
<path d="M82.986 46.7129C79.7068 43.2329 78.1006 38.3474 78.1006 31.9896C78.1006 25.6988 79.7068 20.8134 82.986 17.4002C86.2653 13.9871 91.0169 12.2471 97.1739 12.1802C99.4493 12.1802 101.39 12.314 102.929 12.5817C104.536 12.8494 106.209 13.3179 107.882 14.054V24.5611C106.209 23.758 104.669 23.2226 103.264 22.888C101.792 22.5534 100.185 22.4195 98.4455 22.4195C95.5008 22.4865 93.3592 23.2895 92.0208 24.8957C90.6823 26.5019 90.013 28.8442 90.013 31.9227C90.013 35.1351 90.6823 37.5443 91.9538 39.2174C93.2254 40.8905 95.3 41.7605 98.1108 41.7605C99.717 41.7605 101.256 41.4928 102.729 41.0244C104.201 40.5559 105.74 39.7528 107.346 38.749L110.626 48.3191C106.543 50.7283 102.059 51.9999 97.107 51.9999C91.0169 51.933 86.2653 50.193 82.986 46.7129Z" fill="#031821"/>
<path d="M149.977 16.2625C152.453 18.8056 153.724 22.821 153.724 28.3088V50.8622H142.146V28.2419C142.146 26.4349 141.678 25.0295 140.808 24.0926C139.871 23.1557 138.332 22.6872 136.19 22.6872C133.647 22.6872 130.97 23.758 128.293 25.8995V50.8622H116.715V4.01543L128.293 0V16.2625C129.899 14.991 131.572 14.054 133.312 13.3848C134.986 12.7825 136.859 12.4478 138.8 12.4478C143.753 12.4478 147.5 13.7194 149.977 16.2625Z" fill="#031821"/>
<path d="M188.458 15.1918C191.001 16.5303 192.674 18.2703 193.544 20.4119C194.414 22.5534 194.816 25.3642 194.816 28.7104V50.8622H183.238V47.7837C181.698 49.1891 180.159 50.193 178.62 50.7953C177.081 51.3976 175.475 51.6653 173.668 51.6653C169.384 51.6653 166.105 50.5276 163.696 48.3191C161.287 46.1106 160.082 42.9652 160.082 38.9498C160.082 34.9343 161.287 31.7889 163.763 29.6474C166.239 27.5058 169.652 26.3681 174.002 26.3681C177.616 26.3681 180.695 27.0373 183.238 28.3758C183.171 27.1043 183.037 26.1673 182.702 25.4312C182.368 24.695 181.698 24.1596 180.695 23.7581C179.691 23.3565 178.218 23.1557 176.345 23.1557H166.105L168.782 13.1841H177.348C182.167 13.251 185.915 13.9202 188.458 15.1918ZM183.238 39.7529V36.2059C181.096 35.202 178.955 34.6667 176.813 34.6667C175.207 34.6667 174.002 35.0013 173.065 35.6705C172.195 36.3398 171.727 37.4105 171.727 38.8159C171.727 40.2883 172.128 41.2921 172.864 41.8944C173.601 42.4967 174.671 42.7644 176.144 42.7644C178.352 42.8314 180.762 41.8275 183.238 39.7529Z" fill="#031821"/>
<path d="M65.1838 15.1918C67.7269 16.5303 69.4 18.2703 70.2701 20.4119C71.1401 22.5534 71.5416 25.3642 71.5416 28.7104V50.8622H59.9638V47.7837C58.4245 49.1891 56.8853 50.193 55.346 50.7953C53.8068 51.3976 52.2006 51.6653 50.3937 51.6653C46.1105 51.6653 42.8313 50.5276 40.422 48.3191C38.0127 46.1106 36.8081 42.9652 36.8081 38.9498C36.8081 34.9343 38.0127 31.7889 40.4889 29.6474C42.9651 27.5058 46.3782 26.3681 50.7283 26.3681C54.3422 26.3681 57.4207 27.0373 59.9638 28.3758C59.8968 27.1043 59.763 26.1673 59.4284 25.4312C59.0938 24.695 58.4245 24.1596 57.4207 23.7581C56.4168 23.3565 54.9445 23.1557 53.0706 23.1557H42.8313L45.5082 13.1841H54.0745C58.893 13.251 62.6407 13.9202 65.1838 15.1918ZM59.9638 39.7529V36.2059C57.8222 35.202 55.6806 34.6667 53.5391 34.6667C51.9329 34.6667 50.7283 35.0013 49.7913 35.6705C48.9213 36.3398 48.4529 37.4105 48.4529 38.8159C48.4529 40.2883 48.8544 41.2921 49.5906 41.8944C50.3267 42.4967 51.3975 42.7644 52.8698 42.7644C55.1453 42.8314 57.4876 41.8275 59.9638 39.7529Z" fill="#031821"/>
<path d="M229.549 15.1918C232.092 16.5303 233.765 18.2703 234.635 20.4119C235.505 22.5534 235.907 25.3642 235.907 28.7104V50.8622H224.329V47.7837C222.79 49.1891 221.25 50.193 219.711 50.7953C218.172 51.3976 216.566 51.6653 214.759 51.6653C210.476 51.6653 207.196 50.5276 204.787 48.3191C202.378 46.1106 201.173 42.9652 201.173 38.9498C201.173 34.9343 202.378 31.7889 204.854 29.6474C207.33 27.5058 210.743 26.3681 215.094 26.3681C218.707 26.3681 221.786 27.0373 224.329 28.3758C224.262 27.1043 224.128 26.1673 223.794 25.4312C223.459 24.695 222.79 24.1596 221.786 23.7581C220.782 23.3565 219.31 23.1557 217.436 23.1557H207.196L209.873 13.1841H218.44C223.258 13.251 226.939 13.9202 229.549 15.1918ZM224.329 39.7529V36.2059C222.187 35.202 220.046 34.6667 217.904 34.6667C216.298 34.6667 215.094 35.0013 214.157 35.6705C213.287 36.3398 212.818 37.4105 212.818 38.8159C212.818 40.2883 213.22 41.2921 213.956 41.8944C214.692 42.4967 215.763 42.7644 217.235 42.7644C219.444 42.8314 221.853 41.8275 224.329 39.7529Z" fill="#031821"/>
</svg>
